<?xml version="1.0" encoding="UTF-8"?><svg id="Layer_2" xmlns="http://www.w3.org/2000/svg" xmlns:xlink="http://www.w3.org/1999/xlink" viewBox="0 0 1500 1500"><defs><style>.cls-1,.cls-2,.cls-3,.cls-4,.cls-5,.cls-6,.cls-7,.cls-8,.cls-9{stroke-width:0px;}.cls-1,.cls-10{fill:none;}.cls-2{fill:url(#linear-gradient);}.cls-10{stroke:#a569f9;stroke-miterlimit:10;}.cls-3{fill:url(#linear-gradient-4);}.cls-4{fill:url(#linear-gradient-2);}.cls-5{fill:url(#linear-gradient-3);}.cls-6{fill:url(#linear-gradient-8);}.cls-7{fill:url(#linear-gradient-7);}.cls-8{fill:url(#linear-gradient-5);}.cls-9{fill:url(#linear-gradient-6);}</style><linearGradient id="linear-gradient" x1="738.19" y1="192.02" x2="562.59" y2="496.17" gradientUnits="userSpaceOnUse"><stop offset="0" stop-color="#b4a5c8"/><stop offset=".34" stop-color="#6d6379"/><stop offset=".66" stop-color="#322e37"/><stop offset=".88" stop-color="#0d0c0f"/><stop offset="1" stop-color="#000"/></linearGradient><linearGradient id="linear-gradient-2" x1="989.81" y1="321.99" x2="691.62" y2="581.2" gradientUnits="userSpaceOnUse"><stop offset="0" stop-color="#9a6af9"/><stop offset=".2" stop-color="#6b49ad"/><stop offset=".42" stop-color="#3d2a64"/><stop offset=".61" stop-color="#1c132d"/><stop offset=".74" stop-color="#07050c"/><stop offset=".81" stop-color="#000"/></linearGradient><linearGradient id="linear-gradient-3" x1="807.59" y1="766.32" x2="1172.72" y2="766.32" gradientUnits="userSpaceOnUse"><stop offset="0" stop-color="#6750b4"/><stop offset=".18" stop-color="#574398"/><stop offset=".58" stop-color="#2f2452"/><stop offset="1" stop-color="#000"/></linearGradient><linearGradient id="linear-gradient-4" x1="578.81" y1="966.82" x2="818.12" y2="681.62" gradientUnits="userSpaceOnUse"><stop offset="0" stop-color="#a569f9"/><stop offset=".36" stop-color="#654099"/><stop offset=".8" stop-color="#1d122b"/><stop offset="1" stop-color="#000"/></linearGradient><linearGradient id="linear-gradient-5" x1="425.45" y1="392.7" x2="530.11" y2="986.22" gradientUnits="userSpaceOnUse"><stop offset="0" stop-color="#b4a5c8"/><stop offset=".2" stop-color="#7f748d"/><stop offset=".39" stop-color="#524b5b"/><stop offset=".58" stop-color="#2e2a33"/><stop offset=".75" stop-color="#151317"/><stop offset=".89" stop-color="#050506"/><stop offset="1" stop-color="#000"/></linearGradient><linearGradient id="linear-gradient-6" x1="336.54" y1="778.42" x2="510.38" y2="1056.61" gradientUnits="userSpaceOnUse"><stop offset="0" stop-color="#b4a5c8"/><stop offset=".1" stop-color="#ae9fc1"/><stop offset=".25" stop-color="#9e91b0"/><stop offset=".41" stop-color="#847993"/><stop offset=".59" stop-color="#60586b"/><stop offset=".78" stop-color="#322e38"/><stop offset=".97" stop-color="#000"/><stop offset="1" stop-color="#776d85"/></linearGradient><linearGradient id="linear-gradient-7" x1="421.05" y1="1092.84" x2="779.89" y2="1156.11" gradientUnits="userSpaceOnUse"><stop offset="0" stop-color="#aea6d0"/><stop offset=".11" stop-color="#928bae"/><stop offset=".36" stop-color="#545064"/><stop offset=".57" stop-color="#26242e"/><stop offset=".73" stop-color="#0a0a0c"/><stop offset=".81" stop-color="#000"/></linearGradient><linearGradient id="linear-gradient-8" x1="836.27" y1="970.48" x2="970.8" y2="1185.77" gradientUnits="userSpaceOnUse"><stop offset="0" stop-color="#b4a5c8"/><stop offset=".33" stop-color="#72697f"/><stop offset=".89" stop-color="#000"/></linearGradient></defs><g id="Layer_2-2"><polygon class="cls-10" points="281.28 812.95 480.39 383.02 745.94 196.5 1156.91 514.21 1172.72 1018.44 750.38 1323.5 417.17 1114.85 281.28 812.95"/><polygon class="cls-2" points="673.23 560.05 745.94 196.5 480.39 383.02 673.23 560.05"/><polygon class="cls-4" points="855.01 721.27 1156.91 514.21 745.94 196.5 673.23 560.05 855.01 721.27"/><polygon class="cls-5" points="807.59 988.4 1172.72 1018.44 1156.91 514.21 855.01 721.27 807.59 988.4"/><polygon class="cls-3" points="589.46 975.76 807.59 988.4 855.01 721.27 673.23 560.05 589.46 975.76"/><polygon class="cls-8" points="281.28 812.95 589.46 975.76 673.23 560.05 480.39 383.02 281.28 812.95"/><polygon class="cls-9" points="417.17 1114.85 589.46 975.76 281.28 812.95 417.17 1114.85"/><polygon class="cls-7" points="750.38 1323.5 417.17 1114.85 589.46 975.76 807.59 988.4 750.38 1323.5"/><polygon class="cls-6" points="1172.72 1018.44 750.38 1323.5 807.59 988.4 1172.72 1018.44"/><rect class="cls-1" width="1500" height="1500"/></g></svg>