<?xml version="1.0" encoding="UTF-8"?><svg id="Layer_2" xmlns="http://www.w3.org/2000/svg" xmlns:xlink="http://www.w3.org/1999/xlink" viewBox="0 0 6428 1500"><defs><style>.cls-1{fill:none;}.cls-1,.cls-2,.cls-3{stroke-width:0px;}.cls-2{fill:url(#linear-gradient);}</style><linearGradient id="linear-gradient" x1="-630.55" y1="-1001.25" x2="1722.77" y2="1803.34" gradientUnits="userSpaceOnUse"><stop offset="0" stop-color="#000"/><stop offset=".21" stop-color="#010102"/><stop offset=".35" stop-color="#07040b"/><stop offset=".46" stop-color="#110b1a"/><stop offset=".57" stop-color="#1f142f"/><stop offset=".67" stop-color="#311f4b"/><stop offset=".76" stop-color="#472d6c"/><stop offset=".84" stop-color="#623e94"/><stop offset=".93" stop-color="#8051c2"/><stop offset="1" stop-color="#a066f2"/></linearGradient></defs><g id="eclipse"><g id="logo"><rect class="cls-1" width="6428" height="1500" rx="74.98" ry="74.98"/><rect class="cls-1" x="126" y="146" width="6176" height="1248" rx="74.98" ry="74.98"/><path class="cls-3" d="m289.23,763.91c0-236.05,145.44-438.11,351.59-521.52-284.06,4.58-512.93,236.24-512.93,521.39s228.51,516.45,512.26,521.38c-205.79-83.58-350.92-285.45-350.92-521.25Z"/><circle class="cls-2" cx="850.47" cy="763.77" r="521.5"/><path class="cls-3" d="m1691.45,1105.1c-58.33-32.39-103.27-77.09-134.8-134.12s-47.3-121.83-47.3-194.41c0-65.66,13.61-128.08,40.83-187.27s69.11-107.56,125.7-145.16,126.8-56.39,210.61-56.39c68.25,0,131.09,13.41,188.56,40.19,57.45,26.78,103.67,69.55,138.67,128.3s52.5,133.06,52.5,222.92v37.58h-528.78c2.59,18.16,7.34,35.66,14.25,52.5s14.69,30.89,23.34,42.11c29.38,37.16,72.56,55.72,129.59,55.72,31.97,0,59.39-7.77,82.3-23.33,22.89-15.55,39.09-35.42,48.59-59.61h219.03c-22.47,79.5-63.95,144.3-124.42,194.41-60.48,50.11-139.53,75.16-237.16,75.16-76.03,0-143.22-16.19-201.53-48.59Zm354.45-442.58c-6.06-26.78-17.72-48.83-34.98-66.11-28.53-28.5-67.41-42.77-116.64-42.77s-88.14,14.27-116.64,42.77c-18.16,18.16-29.39,40.19-33.7,66.11h301.97Z"/><path class="cls-3" d="m2531.25,1105.74c-57.47-31.97-102.17-77.11-134.14-135.42s-47.95-126.36-47.95-204.12,15.77-140.17,47.3-197.64c31.53-57.45,76.25-101.95,134.14-133.48s124.86-47.31,200.89-47.31c92.44,0,170.84,23.33,235.22,69.98,64.36,46.66,106.05,110.17,125.06,190.52h-238.47c-9.5-30.23-24.19-52.48-44.06-66.73s-45.78-21.39-77.75-21.39c-48.39,0-86.84,18.36-115.34,55.08-28.52,36.72-42.77,87.05-42.77,150.98s14.25,118.81,42.77,156.83c28.5,38.02,66.95,57.02,115.34,57.02,35.41,0,63.06-7.98,82.94-23.97s33.69-39.97,41.47-71.94h237.17c-18.16,83.81-59.62,149.7-124.42,197.64-64.8,47.95-143.84,71.92-237.16,71.92-76.03,0-142.78-15.98-200.23-47.95Z"/><path class="cls-3" d="m3363.93,1138.14c-53.58,0-95.05-12.73-124.42-38.23-29.38-25.48-44.06-61.56-44.06-108.22V149.3h217.73v767.23c0,30.25,14.25,45.36,42.77,45.36h54.42v176.25h-146.44Z"/><path class="cls-3" d="m3632.85,322.31c-23.77-20.3-35.64-47.3-35.64-81s11.88-60.91,35.64-81.64c23.75-20.73,52.91-31.11,87.47-31.11s63.72,10.38,87.48,31.11c23.75,20.73,35.64,47.95,35.64,81.64s-11.89,60.7-35.64,81c-23.77,20.31-52.92,30.45-87.48,30.45s-63.72-10.14-87.47-30.45Zm196.34,815.83h-217.73V403.31h217.73v734.83Z"/><path class="cls-3" d="m4543.27,436.36c48.38,32.41,86.19,77.77,113.41,136.08,27.22,58.33,40.83,124.64,40.83,198.94s-13.61,139.33-40.83,197.64c-27.22,58.33-65.03,103.69-113.41,136.08-48.39,32.41-103.69,48.59-165.89,48.59-41.47,0-77.33-6.92-107.56-20.73-30.25-13.81-57.03-38.44-80.34-73.88v333.08h-217.73V403.31h217.73v79.05c23.31-35.41,50.09-60.03,80.34-73.86,30.23-13.83,66.09-20.75,107.56-20.75,62.2,0,117.5,16.2,165.89,48.61Zm-343.44,191.16c-29.38,36.3-44.06,84.25-44.06,143.86s14.69,106.28,44.06,142.56,68.25,54.42,116.64,54.42,87.27-18.36,116.64-55.08,44.06-84.02,44.06-141.91-14.69-106.48-44.06-143.2-68.27-55.09-116.64-55.09-87.27,18.16-116.64,54.44Z"/><path class="cls-3" d="m4980.66,1127.13c-52.28-17.7-96.98-46.64-134.14-86.83-37.16-40.17-59.61-92.23-67.39-156.17h211.25c11.23,34.56,30.67,60.7,58.33,78.41,27.64,17.72,58.31,26.56,92.02,26.56,30.23,0,55.08-6.05,74.52-18.14s29.16-28.08,29.16-47.95c0-22.45-12.11-38.86-36.3-49.23s-62.64-20.73-115.33-31.11c-57.89-11.23-105.84-23.55-143.86-36.94s-70.84-35.64-98.5-66.75c-27.66-31.09-41.47-73.44-41.47-127,0-76.03,28.08-132.41,84.23-169.12s126.58-55.09,211.25-55.09c90.72,0,166.09,22.69,226.16,68.05,60.05,45.38,96.98,109.09,110.81,191.16h-206.06c-9.52-32.83-26.38-57.02-50.56-72.58-24.19-15.55-51.41-23.33-81.64-23.33-26.78,0-48.17,5.19-64.16,15.56s-23.97,23.77-23.97,40.17c0,22.47,12.31,38.67,36.94,48.61s63.72,19.66,117.3,29.16c58.75,10.38,107.56,22.03,146.44,34.98,38.88,12.97,72.36,34.56,100.44,64.8,28.08,30.25,42.12,71.72,42.12,124.42,0,48.39-12.75,91.16-38.23,128.31-25.5,37.16-62,65.88-109.52,86.17-47.53,20.3-103.25,30.45-167.17,30.45-56.17,0-110.39-8.86-162.66-26.56Z"/><path class="cls-3" d="m5727.16,1105.1c-58.33-32.39-103.27-77.09-134.8-134.12s-47.3-121.83-47.3-194.41c0-65.66,13.61-128.08,40.83-187.27s69.11-107.56,125.7-145.16,126.8-56.39,210.61-56.39c68.25,0,131.09,13.41,188.56,40.19,57.45,26.78,103.67,69.55,138.67,128.3s52.5,133.06,52.5,222.92v37.58h-528.78c2.59,18.16,7.34,35.66,14.25,52.5s14.69,30.89,23.34,42.11c29.38,37.16,72.56,55.72,129.59,55.72,31.97,0,59.39-7.77,82.3-23.33,22.89-15.55,39.09-35.42,48.59-59.61h219.03c-22.47,79.5-63.95,144.3-124.42,194.41-60.48,50.11-139.53,75.16-237.16,75.16-76.03,0-143.22-16.19-201.53-48.59Zm354.45-442.58c-6.06-26.78-17.72-48.83-34.98-66.11-28.53-28.5-67.41-42.77-116.64-42.77s-88.14,14.27-116.64,42.77c-18.16,18.16-29.39,40.19-33.7,66.11h301.97Z"/></g></g></svg>